<svg width="26" height="26" viewBox="0 0 26 26" fill="none" xmlns="http://www.w3.org/2000/svg">
<g clip-path="url(#clip0_814_2602)">
<path d="M9.02316 25.273H0.727539V17.0004C0.753791 14.8534 1.62771 12.8033 3.15961 11.2952C4.69151 9.78704 6.75777 8.94256 8.90989 8.94503C8.8954 6.78012 9.74348 4.69814 11.2676 3.15709C12.7917 1.61605 14.8669 0.742179 17.0368 0.727721C19.2067 0.713263 21.2934 1.5594 22.838 3.08C24.3826 4.6006 25.2585 6.67109 25.273 8.836V17.1086H17.093C17.0947 19.2547 16.2485 21.315 14.7379 22.8428C13.2273 24.3707 11.174 25.243 9.02316 25.2706V25.273ZM8.91388 8.94503C8.91265 11.0909 9.759 13.1509 11.2695 14.6785C12.7801 16.2061 14.8331 17.0784 16.9838 17.1062H17.0922C17.0928 16.0341 16.8815 14.9725 16.4704 13.9819C16.0594 12.9913 15.4566 12.0913 14.6967 11.3334C13.9368 10.5754 13.0345 9.97432 12.0416 9.56451C11.0486 9.1547 9.98444 8.94419 8.90989 8.94503H8.91388Z" fill="white"/>
</g>
<defs>
<clipPath id="clip0_814_2602">
<rect width="24.5455" height="24.5455" fill="white" transform="translate(0.727539 0.727539)"/>
</clipPath>
</defs>
</svg>