<svg width="194" height="34" viewBox="0 0 194 34" fill="none" xmlns="http://www.w3.org/2000/svg">
<g clip-path="url(#clip0_1_4)">
<path fill-rule="evenodd" clip-rule="evenodd" d="M19.8975 19.9024C19.8975 23.5664 16.928 26.5366 13.265 26.5366C9.60197 26.5366 6.63251 23.5664 6.63251 19.9024V6.63416H19.8975V19.9024Z" fill="url(#paint0_linear_1_4)"/>
<path fill-rule="evenodd" clip-rule="evenodd" d="M19.8975 19.9024C19.8975 23.5664 16.928 26.5366 13.265 26.5366C9.60197 26.5366 6.63251 23.5664 6.63251 19.9024V6.63416H19.8975V19.9024Z" fill="url(#paint1_linear_1_4)"/>
<path fill-rule="evenodd" clip-rule="evenodd" d="M26.5299 0V8.29268L23.2137 9.95122V3.31707H3.31624V13.2683H26.5299V19.9024C26.5299 27.2303 20.591 33.1707 13.265 33.1707C6.48388 33.1707 0.89122 28.0812 0.0967115 21.5128L3.31624 19.9024V21.0081L3.32472 21.0081C3.54204 26.0996 7.90929 30.1633 13.265 30.1633C18.6206 30.1633 22.9879 26.0996 23.2052 21.0081L23.2137 21.0081V16.5854H0V0H26.5299Z" fill="white"/>
<path fill-rule="evenodd" clip-rule="evenodd" d="M44.8383 26.0313C43.8695 25.9708 43.025 25.8801 42.3048 25.7591V23.997C44.1224 24.187 45.6914 24.282 47.0118 24.282C47.8349 24.282 48.4822 24.2388 48.9538 24.1524C49.4253 24.0661 49.8154 23.9106 50.1241 23.686C50.4327 23.4787 50.6299 23.1634 50.7157 22.7401C50.8014 22.3168 50.8443 21.7424 50.8443 21.0168C50.8443 20.1011 50.8014 19.4619 50.7157 19.0991C50.6299 18.7363 50.437 18.4771 50.1369 18.3216C49.8369 18.1662 49.301 18.0366 48.5294 17.9329L44.9026 17.4665C44.0281 17.3455 43.3722 17.095 42.9349 16.7149C42.4977 16.3349 42.2104 15.8425 42.0733 15.2378C41.9361 14.6331 41.8675 13.8384 41.8675 12.8537C41.8675 11.5234 42.0733 10.4998 42.4848 9.78278C42.8964 9.0658 43.5008 8.56911 44.2982 8.29269C45.0955 8.01626 46.1458 7.87805 47.4491 7.87805C48.3407 7.87805 49.211 7.91692 50.0598 7.99467C50.9086 8.07241 51.6074 8.17175 52.1561 8.29269V10.0031C50.8871 9.81301 49.4725 9.71799 47.912 9.71799C47.0375 9.71799 46.343 9.76982 45.8286 9.87348C45.3142 9.97714 44.9198 10.1413 44.6454 10.3659C44.3539 10.5905 44.161 10.8885 44.0667 11.2599C43.9724 11.6314 43.9252 12.1453 43.9252 12.8018C43.9252 13.562 43.9681 14.1148 44.0538 14.4604C44.1396 14.8059 44.311 15.0521 44.5682 15.1989C44.8255 15.3458 45.2456 15.4538 45.8286 15.5229L49.3782 15.9893C50.3041 16.1103 51.0115 16.296 51.5002 16.5465C51.9889 16.797 52.3533 17.2505 52.5933 17.907C52.8163 18.4599 52.9277 19.4273 52.9277 20.8095C52.9277 22.278 52.7305 23.3966 52.3361 24.1654C51.9417 24.9342 51.3716 25.4525 50.6256 25.7203C49.8797 25.9881 48.8809 26.122 47.6291 26.122C46.7374 26.122 45.8072 26.0917 44.8383 26.0313ZM62.1692 25.4352C61.3118 24.9774 60.7674 24.1611 60.5359 22.9863C60.3044 21.8115 60.1886 19.8161 60.1886 17C60.1886 14.1839 60.3044 12.1885 60.5359 11.0137C60.7674 9.83892 61.3118 9.02262 62.1692 8.56479C63.0266 8.10696 64.467 7.87805 66.4904 7.87805C68.5138 7.87805 69.9499 8.10696 70.7987 8.56479C71.6476 9.02262 72.1877 9.83892 72.4192 11.0137C72.6507 12.1885 72.7664 14.1839 72.7664 17C72.7664 19.8161 72.6507 21.8115 72.4192 22.9863C72.1877 24.1611 71.6476 24.9774 70.7987 25.4352C69.9499 25.893 68.5138 26.122 66.4904 26.122C64.467 26.122 63.0266 25.893 62.1692 25.4352ZM69.4226 23.9192C69.9371 23.6773 70.28 23.0899 70.4515 22.157C70.623 21.2241 70.7087 19.5051 70.7087 17C70.7087 14.4949 70.623 12.7759 70.4515 11.843C70.28 10.9101 69.9371 10.3227 69.4226 10.0808C68.9082 9.83892 67.9308 9.71799 66.4904 9.71799C65.05 9.71799 64.0683 9.83892 63.5453 10.0808C63.0223 10.3227 62.675 10.9101 62.5036 11.843C62.3321 12.7759 62.2464 14.4949 62.2464 17C62.2464 19.5051 62.3321 21.2241 62.5036 22.157C62.675 23.0899 63.0223 23.6773 63.5453 23.9192C64.0683 24.1611 65.05 24.282 66.4904 24.282C67.9308 24.282 68.9082 24.1611 69.4226 23.9192ZM80.8247 25.9146V8.08537H82.8824V24.0229H89.8787V25.9146H80.8247ZM96.8567 25.9146V8.08537H98.9144V25.9146H96.8567ZM107.513 8.08537H112.451C114.561 8.08537 116.052 8.30564 116.927 8.74619C117.801 9.18674 118.359 9.98145 118.599 11.1303C118.839 12.2792 118.959 14.2358 118.959 17C118.959 19.7642 118.839 21.7208 118.599 22.8697C118.359 24.0186 117.801 24.8133 116.927 25.2538C116.052 25.6944 114.561 25.9146 112.451 25.9146H107.513V8.08537ZM112.22 24.0747C113.832 24.0747 114.925 23.9581 115.499 23.7249C116.074 23.4916 116.451 22.9258 116.631 22.0274C116.811 21.1291 116.901 19.4533 116.901 17C116.901 14.564 116.811 12.8925 116.631 11.9855C116.451 11.0785 116.069 10.5084 115.486 10.2752C114.903 10.0419 113.815 9.92531 112.22 9.92531H109.571V24.0747H112.22ZM127.043 25.9146V8.08537H129.101V25.9146H127.043ZM137.699 25.9146V8.08537H147.165V9.92531H139.757V16.3781H146.367V18.218H139.757V25.9146H137.699ZM154.4 25.9146V8.08537H156.457V25.9146H154.4ZM165.056 25.9146V8.08537H174.984V9.92531H167.114V15.9893H173.955V17.8293H167.114V24.0747H174.984V25.9146H165.056ZM182.554 8.08537H187.492C189.602 8.08537 191.093 8.30564 191.968 8.74619C192.843 9.18674 193.4 9.98145 193.64 11.1303C193.88 12.2792 194 14.2358 194 17C194 19.7642 193.88 21.7208 193.64 22.8697C193.4 24.0186 192.843 24.8133 191.968 25.2538C191.093 25.6944 189.602 25.9146 187.492 25.9146H182.554V8.08537ZM187.261 24.0747C188.873 24.0747 189.966 23.9581 190.54 23.7249C191.115 23.4916 191.492 22.9258 191.672 22.0274C191.852 21.1291 191.942 19.4533 191.942 17C191.942 14.564 191.852 12.8925 191.672 11.9855C191.492 11.0785 191.111 10.5084 190.528 10.2752C189.945 10.0419 188.856 9.92531 187.261 9.92531H184.612V24.0747H187.261Z" fill="white"/>
</g>
<defs>
<linearGradient id="paint0_linear_1_4" x1="964.657" y1="6.63416" x2="1.87181" y2="1433.37" gradientUnits="userSpaceOnUse">
<stop stop-color="#8FCF4A"/>
<stop offset="1" stop-color="#00AAFF"/>
</linearGradient>
<linearGradient id="paint1_linear_1_4" x1="19.5" y1="7" x2="4" y2="29" gradientUnits="userSpaceOnUse">
<stop stop-color="#86CD56"/>
<stop offset="1" stop-color="#07ACF5"/>
</linearGradient>
<clipPath id="clip0_1_4">
<rect width="194" height="34" fill="white"/>
</clipPath>
</defs>
</svg>
