<svg width="24" height="25" viewBox="0 0 24 25" fill="none" xmlns="http://www.w3.org/2000/svg">
<g clip-path="url(#clip0_1_19755)">
<path fill-rule="evenodd" clip-rule="evenodd" d="M19.54 0.992188C20.896 0.992188 22 2.09619 22 3.46419V24.9922L19.42 22.7122L17.968 21.3682L16.432 19.9402L17.068 22.1602H3.46C2.104 22.1602 1 21.0562 1 19.6882V3.46419C1 2.09619 2.104 0.992188 3.46 0.992188H19.54V0.992188ZM14.908 16.6642C17.56 16.5802 18.58 14.8402 18.58 14.8402C18.58 10.9762 16.852 7.84419 16.852 7.84419C15.124 6.54819 13.48 6.58419 13.48 6.58419L13.312 6.77619C15.352 7.40019 16.3 8.30019 16.3 8.30019C15.052 7.61619 13.828 7.28019 12.688 7.14819C11.824 7.05219 10.996 7.07619 10.264 7.17219L10.06 7.19619C9.64 7.23219 8.62 7.38819 7.336 7.95219C6.892 8.15619 6.628 8.30019 6.628 8.30019C6.628 8.30019 7.624 7.35219 9.784 6.72819L9.664 6.58419C9.664 6.58419 8.02 6.54819 6.292 7.84419C6.292 7.84419 4.564 10.9762 4.564 14.8402C4.564 14.8402 5.572 16.5802 8.224 16.6642C8.224 16.6642 8.668 16.1242 9.028 15.6682C7.504 15.2122 6.928 14.2522 6.928 14.2522L7.264 14.4562L7.312 14.4922L7.359 14.5192L7.373 14.5252L7.42 14.5522C7.72 14.7202 8.02 14.8522 8.296 14.9602C8.788 15.1522 9.376 15.3442 10.06 15.4762C10.96 15.6442 12.016 15.7042 13.168 15.4882C13.732 15.3922 14.308 15.2242 14.908 14.9722C15.328 14.8162 15.796 14.5882 16.288 14.2642C16.288 14.2642 15.688 15.2482 14.116 15.6922C14.476 16.1482 14.908 16.6642 14.908 16.6642ZM9.328 11.0602C8.644 11.0602 8.104 11.6602 8.104 12.3922C8.104 13.1242 8.656 13.7242 9.328 13.7242C10.012 13.7242 10.552 13.1242 10.552 12.3922C10.564 11.6602 10.012 11.0602 9.328 11.0602ZM13.708 11.0602C13.024 11.0602 12.484 11.6602 12.484 12.3922C12.484 13.1242 13.036 13.7242 13.708 13.7242C14.392 13.7242 14.932 13.1242 14.932 12.3922C14.932 11.6602 14.392 11.0602 13.708 11.0602Z" fill="white"/>
</g>
<defs>
<clipPath id="clip0_1_19755">
<rect width="24" height="24" fill="white" transform="translate(0 0.992188)"/>
</clipPath>
</defs>
</svg>
