<svg xmlns="http://www.w3.org/2000/svg" width="60" height="60" viewBox="0 0 61 60" fill="none">
  <g filter="url(#filter0_bi_8441_40824)">
    <path fill-rule="evenodd" clip-rule="evenodd" d="M13.8382 10C15.6293 10 17.0814 11.452 17.0814 13.2432C17.0814 13.2711 17.081 13.2989 17.0803 13.3266L31.472 18.2892C32.0024 17.2206 33.1048 16.4861 34.3787 16.4861C36.1699 16.4861 37.622 17.9382 37.622 19.7294C37.622 20.7541 37.1467 21.6679 36.4046 22.2622L43.1822 27.4451C43.8597 24.272 46.6791 21.8924 50.0544 21.8924C53.9353 21.8924 57.0814 25.0385 57.0814 28.9194C57.0814 32.8003 53.9353 35.9464 50.0544 35.9464C48.1106 35.9464 46.3512 35.1572 45.0791 33.8818L40.2263 40.4992C40.6277 41.0391 40.8653 41.708 40.8653 42.4325C40.8653 44.2237 39.4132 45.6757 37.622 45.6757C36.2353 45.6757 35.0518 44.8054 34.5881 43.5812H17.0555C16.7473 47.1774 13.7305 50.0002 10.0544 50.0002C6.17345 50.0002 3.02734 46.8541 3.02734 42.9732C3.02734 39.2805 5.87569 36.2531 9.49517 35.9681L11.5389 15.5306C10.9555 14.9442 10.5949 14.1358 10.5949 13.2432C10.5949 11.452 12.047 10 13.8382 10ZM12.6867 16.2761L10.7166 35.977C11.7437 36.073 12.7066 36.3901 13.5573 36.8802L18.1633 29.7152C17.4994 29.1213 17.0815 28.258 17.0815 27.2971C17.0815 26.1528 17.674 25.147 18.569 24.5697L14.9474 16.2918C14.6013 16.4178 14.2278 16.4865 13.8382 16.4865C13.4326 16.4865 13.0445 16.4121 12.6867 16.2761ZM15.8826 15.7611L16.017 15.7023L19.6973 24.1145C19.9003 24.0747 20.1101 24.0538 20.3247 24.0538C21.4051 24.0538 22.3621 24.5821 22.9515 25.3944L31.6486 21.4807C31.3239 20.9756 31.1355 20.3745 31.1355 19.7294C31.1355 19.6398 31.1391 19.5511 31.1462 19.4634L16.8191 14.523C16.6105 15.0082 16.2869 15.4324 15.8826 15.7611ZM32.3999 22.2991L32.4662 22.4465L23.4682 26.4956C23.5333 26.7519 23.5679 27.0205 23.5679 27.2971C23.5679 27.4709 23.5543 27.6415 23.5279 27.808L43.0402 29.3484C43.0317 29.2065 43.0273 29.0634 43.0273 28.9194C43.0273 28.8989 43.0274 28.8784 43.0276 28.8579L35.1957 22.8688C34.9347 22.9366 34.6609 22.9726 34.3787 22.9726C33.6338 22.9726 32.9474 22.7214 32.3999 22.2991ZM43.2254 30.583L23.0895 28.9933C22.5189 29.9214 21.4941 30.5403 20.3247 30.5403C19.9316 30.5403 19.5548 30.4704 19.2061 30.3422L14.5554 37.5767C15.4284 38.3056 16.1219 39.2425 16.5596 40.3112L43.2648 30.7376C43.2511 30.6863 43.238 30.6348 43.2254 30.583ZM43.68 31.8808L16.921 41.4736C16.9842 41.7644 17.0295 42.0619 17.0554 42.3649H34.3795C34.4154 40.6049 35.8534 39.1892 37.622 39.1892C38.2466 39.1892 38.83 39.3658 39.3249 39.6717L44.2764 32.9198C44.0494 32.5926 43.8495 32.2451 43.68 31.8808Z" fill="url(#paint0_linear_8441_40824)"/>
  </g>
  <defs>
    <filter id="filter0_bi_8441_40824" x="-0.939312" y="6.03334" width="61.988" height="47.9333" filterUnits="userSpaceOnUse" color-interpolation-filters="sRGB">
      <feFlood flood-opacity="0" result="BackgroundImageFix"/>
      <feGaussianBlur in="BackgroundImageFix" stdDeviation="1.98333"/>
      <feComposite in2="SourceAlpha" operator="in" result="effect1_backgroundBlur_8441_40824"/>
      <feBlend mode="normal" in="SourceGraphic" in2="effect1_backgroundBlur_8441_40824" result="shape"/>
      <feColorMatrix in="SourceAlpha" type="matrix" values="0 0 0 0 0 0 0 0 0 0 0 0 0 0 0 0 0 0 127 0" result="hardAlpha"/>
      <feOffset dx="5.94998" dy="-0.991664"/>
      <feGaussianBlur stdDeviation="0.991664"/>
      <feComposite in2="hardAlpha" operator="arithmetic" k2="-1" k3="1"/>
      <feColorMatrix type="matrix" values="0 0 0 0 1 0 0 0 0 1 0 0 0 0 1 0 0 0 0.2 0"/>
      <feBlend mode="normal" in2="shape" result="effect2_innerShadow_8441_40824"/>
    </filter>
    <linearGradient id="paint0_linear_8441_40824" x1="57.0814" y1="42.4499" x2="18.3327" y2="42.4499" gradientUnits="userSpaceOnUse">
      <stop stop-color="#9EB4FF"/>
      <stop offset="0.0208333" stop-color="#9DAEFF" stop-opacity="0.55"/>
      <stop offset="0.223958" stop-color="#8C7AFA" stop-opacity="0.6"/>
      <stop offset="0.859375" stop-color="#5F3CEA" stop-opacity="0.69"/>
      <stop offset="1" stop-color="#6461FF" stop-opacity="0.65"/>
    </linearGradient>
  </defs>
</svg>