<svg width="24" height="25" viewBox="0 0 24 25" fill="none" xmlns="http://www.w3.org/2000/svg">
<g clip-path="url(#clip0_1_19761)">
<path d="M12 0.992188C5.374 0.992188 0 6.36519 0 12.9922C0 18.2942 3.438 22.7922 8.207 24.3792C8.806 24.4902 9 24.1182 9 23.8022V21.5682C5.662 22.2942 4.967 20.1522 4.967 20.1522C4.421 18.7652 3.634 18.3962 3.634 18.3962C2.545 17.6512 3.717 17.6672 3.717 17.6672C4.922 17.7512 5.556 18.9042 5.556 18.9042C6.626 20.7382 8.363 20.2082 9.048 19.9012C9.155 19.1262 9.466 18.5962 9.81 18.2972C7.145 17.9922 4.343 16.9632 4.343 12.3662C4.343 11.0552 4.812 9.98519 5.579 9.14519C5.455 8.84219 5.044 7.62119 5.696 5.96919C5.696 5.96919 6.704 5.64719 8.997 7.19919C9.954 6.93319 10.98 6.80019 12 6.79519C13.02 6.80019 14.047 6.93319 15.006 7.19919C17.297 5.64719 18.303 5.96919 18.303 5.96919C18.956 7.62219 18.545 8.84319 18.421 9.14519C19.191 9.98519 19.656 11.0562 19.656 12.3662C19.656 16.9752 16.849 17.9902 14.177 18.2872C14.607 18.6592 15 19.3892 15 20.5092V23.8022C15 24.1212 15.192 24.4962 15.801 24.3782C20.566 22.7892 24 18.2922 24 12.9922C24 6.36519 18.627 0.992188 12 0.992188Z" fill="white"/>
</g>
<defs>
<clipPath id="clip0_1_19761">
<rect width="24" height="24" fill="white" transform="translate(0 0.992188)"/>
</clipPath>
</defs>
</svg>
