<svg width="48" height="48" viewBox="0 0 48 48" fill="none" xmlns="http://www.w3.org/2000/svg">
<path d="M44 24H4" stroke="#C293FF" stroke-width="4" stroke-linecap="round" stroke-linejoin="round"/>
<path d="M10.9 10.2195L4 23.9995V35.9995C4 37.0604 4.42143 38.0778 5.17157 38.8279C5.92172 39.5781 6.93913 39.9995 8 39.9995H40C41.0609 39.9995 42.0783 39.5781 42.8284 38.8279C43.5786 38.0778 44 37.0604 44 35.9995V23.9995L37.1 10.2195C36.7688 9.55309 36.2584 8.99225 35.6259 8.60007C34.9935 8.20789 34.2642 7.99991 33.52 7.99951H14.48C13.7358 7.99991 13.0065 8.20789 12.3741 8.60007C11.7417 8.99225 11.2312 9.55309 10.9 10.2195Z" stroke="#C293FF" stroke-width="4" stroke-linecap="round" stroke-linejoin="round"/>
<path d="M12 31.9995H12.02" stroke="#C293FF" stroke-width="4" stroke-linecap="round" stroke-linejoin="round"/>
<path d="M20 31.9995H20.02" stroke="#C293FF" stroke-width="4" stroke-linecap="round" stroke-linejoin="round"/>
</svg>
