<svg width="48" height="48" viewBox="0 0 48 48" fill="none" xmlns="http://www.w3.org/2000/svg">
<path d="M5.00391 30.1776L15.8124 19.3691C16.999 18.181 18.6088 17.5128 20.2878 17.5114H26.1143C27.2341 17.5114 28.308 17.9562 29.0998 18.748C29.8916 19.5398 30.3364 20.6137 30.3364 21.7334C30.3364 22.8532 29.8916 23.9271 29.0998 24.7189C28.308 25.5107 27.2341 25.9555 26.1143 25.9555H20.8367M29.2809 24.52L38.0839 14.197C38.764 13.4432 39.7072 12.9786 40.7194 12.899C41.7315 12.8193 42.7358 13.1306 43.5254 13.7688C44.3151 14.407 44.8301 15.3236 44.9645 16.33C45.099 17.3363 44.8426 18.356 44.2481 19.1791L35.3818 31.7187C34.8013 32.5411 34.0332 33.2132 33.1411 33.6795C32.2489 34.1457 31.2585 34.3926 30.2519 34.3997H19.4223C18.8652 34.3992 18.3135 34.5091 17.799 34.7228C17.2845 34.9366 16.8174 35.2501 16.4246 35.6452L13.4481 38.6218" stroke="#C293FF" stroke-width="4" stroke-linecap="round" stroke-linejoin="round"/>
<path d="M2.89258 28.0659L15.5588 40.7322" stroke="#C293FF" stroke-width="4" stroke-linecap="round" stroke-linejoin="round"/>
</svg>
