<svg width="24" height="25" viewBox="0 0 24 25" fill="none" xmlns="http://www.w3.org/2000/svg">
<g clip-path="url(#clip0_1_19763)">
<path fill-rule="evenodd" clip-rule="evenodd" d="M12 0.992188C5.374 0.992188 0 6.36419 0 12.9922C0 19.6192 5.374 24.9922 12 24.9922C18.627 24.9922 24 19.6192 24 12.9922C24 6.36419 18.627 0.992188 12 0.992188ZM18.974 18.5492V18.3142L17.882 17.2422C17.786 17.1692 17.738 17.0482 17.758 16.9292V9.05519C17.738 8.93619 17.786 8.81519 17.882 8.74219L19 7.67019V7.43519H15.131L12.373 14.3152L9.235 7.43519H5.176V7.67019L6.484 9.24519C6.612 9.36019 6.678 9.53019 6.66 9.70219V15.8902C6.698 16.1132 6.628 16.3412 6.471 16.5042L5 18.2882V18.5232H9.17V18.2882L7.699 16.5042C7.541 16.3412 7.466 16.1152 7.497 15.8902V10.5382L11.157 18.5232H11.582L14.725 10.5382V16.9032C14.725 17.0732 14.725 17.1052 14.614 17.2162L13.484 18.3142V18.5492H18.974Z" fill="white"/>
</g>
<defs>
<clipPath id="clip0_1_19763">
<rect width="24" height="24" fill="white" transform="translate(0 0.992188)"/>
</clipPath>
</defs>
</svg>
