<svg width="1440" height="1206" viewBox="0 0 1440 1206" fill="none" xmlns="http://www.w3.org/2000/svg">
<path d="M-99.9515 618.553C-35.3972 591.103 42.2335 615.179 96.1548 660.118C150.076 705.058 185.198 767.726 219.217 828.763C252.262 888.19 295.073 954.401 363.091 962.52C426.629 969.972 483.858 920.241 513.219 864.1C542.58 807.958 553.197 743.83 578.779 685.927C604.382 627.894 652.632 572.43 716.412 567.389C773.371 562.934 824.522 599.331 879.052 616.639C1000.83 655.411 1131.4 596.999 1238.81 528.61C1346.22 460.221 1452.45 378.062 1579.37 363.222" stroke="url(#paint0_linear_6423_41144)" stroke-opacity="0.7" stroke-miterlimit="10"/>
<path d="M-103.516 610.826C-39.8256 582.848 36.573 604.341 90.7892 646.392C145.005 688.443 181.555 747.858 216.864 806.556C245.346 854.108 280.21 906.742 329.464 928.729C339.315 933.127 349.756 936.279 360.824 937.926C423.017 947.177 478.699 902.414 509.737 850.387C540.966 797.989 555.116 735.453 582.241 678.046C585.207 671.69 588.568 665.392 592.061 659.115C620.115 609.043 664.74 564.368 721.552 559.091C736.306 557.687 750.785 559.041 765.011 562.09C805.846 570.964 844.679 594.2 885.118 607.545C928.247 621.824 972.404 624.661 1016.41 618.545C1084.62 609.099 1151.86 578.051 1212.67 541.381C1223.91 534.656 1234.9 527.761 1245.65 520.697C1293.53 489.435 1341.14 455.467 1391.06 426.774C1452.92 391.194 1518.74 364.332 1587.35 360.277" stroke="url(#paint1_linear_6423_41144)" stroke-opacity="0.7" stroke-miterlimit="10"/>
<path d="M-106.949 603.119C-44.2737 574.723 31.1758 593.543 85.7063 632.576C140.237 671.608 178.325 727.92 214.793 784.257C244.357 829.972 279.756 880.819 328.084 903.601C337.784 908.11 348.054 911.503 358.8 913.502C419.648 924.552 473.915 884.777 506.65 836.734C539.727 788.209 557.299 727.115 586.098 670.224C589.328 663.907 592.689 657.609 596.294 651.482C625.363 601.828 670.271 557.062 727.068 550.983C741.841 549.448 756.359 550.542 770.756 553.35C811.951 561.61 851.067 584.755 891.692 598.661C934.875 613.481 978.97 617.641 1023.28 612.237C1092.14 603.82 1159.65 571.88 1220.33 534.258C1231.45 527.383 1242.48 520.227 1253.12 513.013C1300.85 480.929 1348.43 446.29 1398.73 417.786C1461.1 382.414 1528.77 357.561 1595.84 357.542" stroke="url(#paint2_linear_6423_41144)" stroke-opacity="0.7" stroke-miterlimit="10"/>
<path d="M-110.513 595.39C-48.702 566.467 25.4961 582.835 80.3409 618.848C135.186 654.862 174.701 707.921 212.572 762.068C243.237 805.814 279.001 855.116 326.705 878.472C336.253 883.091 346.221 886.706 356.796 888.946C416.299 901.795 469.019 866.988 503.432 823.06C538.376 778.278 559.483 718.776 589.824 662.38C593.185 656.083 596.79 649.955 600.547 643.717C630.631 594.48 675.71 549.473 732.472 542.723C747.284 540.927 761.84 541.76 776.389 544.457C818.076 552.124 857.344 575.158 898.023 589.606C941.128 604.948 985.292 610.451 1029.78 605.607C1099.17 598.202 1166.95 565.368 1227.48 526.924C1238.62 519.919 1249.54 512.613 1260.2 505.268C1307.9 472.513 1355.31 437.182 1406.14 408.757C1469.01 373.594 1538.67 350.769 1604.2 354.786" stroke="url(#paint3_linear_6423_41144)" stroke-opacity="0.7" stroke-miterlimit="10"/>
<path d="M-113.965 587.813C-53.1502 558.341 19.9476 572.147 75.0874 605.272C130.227 638.398 171.301 688.223 210.331 740.01C242.077 781.918 278.357 829.564 325.173 853.454C334.571 858.184 344.367 862.04 354.641 864.502C412.686 879 464.122 849.2 500.062 809.497C537.005 768.478 561.382 710.529 593.379 654.779C596.852 648.632 600.609 642.393 604.477 636.305C635.577 587.486 680.807 542.368 737.704 534.705C752.556 532.649 767.151 533.22 781.85 535.807C823.898 542.861 863.449 565.804 904.294 580.943C947.453 596.826 991.556 603.652 1036.36 599.389C1106.27 592.994 1174.47 559.156 1234.72 519.872C1245.77 512.586 1256.71 505.15 1267.39 497.675C1314.94 464.098 1362.18 428.076 1413.52 399.86C1476.9 364.906 1548.43 343.959 1612.4 352.141" stroke="url(#paint4_linear_6423_41144)" stroke-opacity="0.7" stroke-miterlimit="10"/>
<path d="M-117.397 580.105C-57.466 550.235 14.551 561.348 69.9858 591.585C125.44 621.691 167.92 668.394 208.374 717.861C241.069 757.91 277.884 803.77 324.038 828.495C333.152 833.316 342.798 837.283 352.862 840.246C409.582 856.413 459.734 831.62 497.068 796.123C536.143 758.886 563.791 702.49 597.329 647.236C601.066 641.128 604.935 635.04 608.935 628.971C641.051 580.569 686.564 535.36 743.314 526.875C758.184 524.689 772.95 525.02 787.708 527.215C830.097 533.787 869.818 556.488 910.849 572.188C954.063 588.612 998.103 596.762 1043.21 593.21C1113.77 587.845 1182.24 553.114 1242.23 512.858C1253.3 505.442 1264.13 497.856 1274.84 490.12C1322.36 455.872 1369.44 419.159 1421.3 391.021C1485.21 356.145 1558.71 337.357 1621 349.555" stroke="url(#paint5_linear_6423_41144)" stroke-opacity="0.7" stroke-miterlimit="10"/>
<path d="M-120.962 572.379C-62.0264 541.961 8.87089 550.641 64.6394 577.729C120.389 604.948 164.427 648.417 206.04 695.524C239.837 733.604 277.147 777.939 322.414 803.198C331.377 808.13 340.72 812.318 350.614 815.523C405.988 833.489 455.009 813.592 493.625 782.151C534.83 748.696 565.617 693.833 600.83 639.095C604.699 633.006 608.699 626.937 612.812 621.019C645.943 573.035 691.626 527.584 748.493 518.317C763.402 515.87 778.206 515.94 793.115 518.024C835.997 524.003 875.869 546.594 917.086 562.854C960.354 579.819 1004.35 589.163 1049.63 586.301C1120.71 581.948 1189.44 546.324 1249.44 505.135C1260.4 497.569 1271.24 489.852 1281.85 481.966C1329.22 446.897 1376.26 409.512 1428.52 381.433C1492.93 346.766 1568.31 329.856 1629.04 346.22" stroke="url(#paint6_linear_6423_41144)" stroke-opacity="0.7" stroke-miterlimit="10"/>
<path d="M-124.394 564.67C-66.3233 533.724 3.3419 539.822 59.4054 564.021C115.469 588.221 160.915 628.568 203.818 673.334C238.696 709.576 276.391 752.235 321.033 778.068C329.846 783.111 339.018 787.541 348.61 790.967C402.639 810.732 450.508 795.861 490.406 768.476C533.874 738.823 567.8 685.493 604.536 631.382C608.649 625.463 612.781 619.414 617.025 613.514C651.172 565.948 697.006 520.387 753.989 510.337C768.918 507.76 783.761 507.569 798.84 509.412C842.082 514.778 882.237 537.278 923.641 554.099C966.962 571.605 1010.9 582.272 1056.47 580.121C1128.08 576.779 1197.21 540.281 1256.93 498.251C1267.91 490.555 1278.66 482.558 1289.28 474.541C1336.62 438.8 1383.49 400.724 1436.28 372.724C1501.33 338.285 1578.56 323.384 1637.75 343.783" stroke="url(#paint7_linear_6423_41144)" stroke-opacity="0.7" stroke-miterlimit="10"/>
<path d="M-127.959 556.943C-70.7714 525.599 -2.18706 529.003 54.1714 550.315C110.53 571.626 157.534 608.739 201.728 651.166C237.576 685.42 275.899 726.572 319.766 753.09C328.407 758.373 337.297 762.895 346.567 766.672C399.251 788.237 445.968 778.393 487.149 755.064C532.879 729.213 569.832 677.266 608.091 623.781C612.335 617.881 616.58 611.982 620.956 606.102C656.098 559.084 702.123 513.151 759.071 502.43C774.038 499.592 788.92 499.14 804.151 500.872C847.754 505.626 888.172 528.165 929.649 545.396C973.025 563.444 1016.9 575.434 1062.66 573.844C1134.79 571.513 1204.19 534.122 1263.78 491.14C1274.64 483.293 1285.41 475.166 1296.05 467.019C1343.24 430.456 1390.08 391.709 1443.25 363.898C1508.81 329.668 1587.92 316.645 1645.52 341.341" stroke="url(#paint8_linear_6423_41144)" stroke-opacity="0.7" stroke-miterlimit="10"/>
<path d="M-131.391 549.236C-75.1998 517.344 -7.73517 518.316 48.9376 536.609C105.61 554.902 154.022 588.892 199.507 628.978C236.436 661.393 275.162 700.74 318.254 727.942C326.744 733.337 335.464 738.099 344.431 742.098C395.77 765.462 441.599 760.684 483.798 741.371C531.924 719.342 571.883 668.908 611.685 615.919C616.061 610.039 620.569 604.179 625.077 598.319C661.103 551.699 707.542 505.695 764.494 494.041C779.5 490.942 794.553 490.249 809.822 491.721C853.766 495.991 894.486 518.309 936.13 536.232C979.428 554.801 1023.37 568.135 1069.45 567.125C1142.23 565.823 1211.9 527.539 1271.23 483.586C1282.12 475.609 1292.79 467.202 1303.45 458.924C1350.63 421.559 1397.28 382.251 1450.97 354.518C1517.06 320.367 1598.14 309.503 1654.07 338.214" stroke="url(#paint9_linear_6423_41144)" stroke-opacity="0.7" stroke-miterlimit="10"/>
<path d="M-134.956 541.508C-79.6283 509.087 -13.3956 507.477 43.5915 522.751C100.579 538.025 150.529 568.913 197.305 606.658C235.316 637.236 274.558 674.927 316.874 702.813C325.213 708.318 333.65 713.172 342.408 717.673C392.402 742.836 437.211 743.104 480.58 727.697C531.061 709.75 573.935 660.55 615.391 608.206C620.031 602.366 624.519 596.636 629.291 590.815C666.332 544.612 712.922 498.497 769.859 486.042C784.753 482.793 799.976 481.859 815.416 483.089C859.852 486.767 900.724 508.973 942.421 527.438C985.774 546.548 1029.65 561.205 1076.03 560.906C1149.34 560.615 1219.29 521.308 1278.59 476.683C1289.51 468.445 1300.06 460.018 1310.62 451.46C1357.63 413.404 1404.27 373.294 1458.34 345.75C1524.93 311.808 1607.87 302.953 1662.25 335.699" stroke="url(#paint10_linear_6423_41144)" stroke-opacity="0.7" stroke-miterlimit="10"/>
<path d="M-138.388 533.8C-84.0759 500.963 -18.9242 496.66 38.4897 509.065C95.7718 521.451 147.149 549.085 195.216 584.49C234.327 613.099 273.934 649.245 315.494 677.685C323.551 683.281 331.948 688.396 340.404 693.119C388.941 719.931 432.935 725.675 477.361 714.024C530.33 700.179 576.118 652.212 619.117 600.364C623.869 594.674 628.64 588.853 633.392 583.162C671.449 537.377 718.209 491.021 775.263 477.783C790.196 474.273 805.457 473.078 821.048 474.198C865.845 477.263 907 499.378 948.883 518.403C992.29 538.055 1036.11 554.036 1082.67 554.297C1156.5 555.017 1226.85 514.836 1285.89 469.24C1296.7 460.852 1307.27 452.295 1317.85 443.607C1364.85 404.748 1411.17 364.058 1465.89 336.612C1533 302.878 1617.8 295.902 1670.76 332.834" stroke="url(#paint11_linear_6423_41144)" stroke-opacity="0.7" stroke-miterlimit="10"/>
<path d="M-141.821 526.093C-88.3731 492.727 -24.3216 485.861 33.2554 495.359C90.8518 504.726 143.768 529.257 193.014 562.172C233.075 588.923 273.348 623.302 314.133 652.426C322.039 658.134 330.134 663.469 338.419 668.434C385.611 697.045 428.678 708.116 474.162 700.221C529.598 690.607 578.188 643.724 622.861 592.392C627.745 586.721 632.761 581.07 637.645 575.399C676.716 530.031 723.628 483.564 780.798 469.544C795.75 465.904 811.051 464.448 826.812 465.326C871.969 467.778 913.407 489.803 955.345 509.369C998.806 529.562 1042.56 546.866 1089.42 547.838C1163.91 549.589 1234.53 508.514 1293.31 461.947C1304.14 453.428 1314.74 444.61 1325.21 435.772C1372.04 396.223 1418.35 354.73 1473.44 327.474C1541.06 293.949 1627.85 289 1679.14 329.948" stroke="url(#paint12_linear_6423_41144)" stroke-opacity="0.7" stroke-miterlimit="10"/>
<path d="M-145.405 518.497C-92.9528 484.583 -30.0211 475.285 28.0215 481.653C85.9128 488.132 140.256 509.41 190.924 540.004C232.067 564.917 272.743 597.49 312.734 627.429C320.488 633.247 328.413 638.824 336.376 644.14C382.223 674.551 424.343 691.079 471.055 686.698C528.941 681.448 580.484 635.536 626.679 584.831C631.827 579.199 636.843 573.548 641.839 568.027C681.926 523.077 729.14 476.388 786.143 461.677C801.134 457.776 816.473 456.059 832.386 456.827C878.016 458.816 919.624 480.599 961.748 500.726C1005.26 521.46 1048.96 540.088 1096 541.621C1171.01 544.382 1241.9 502.415 1300.55 454.895C1311.27 446.227 1321.89 437.278 1332.27 428.16C1378.95 387.789 1425.2 345.755 1480.83 318.577C1549.1 285.15 1637.62 282.191 1687.34 327.305" stroke="url(#paint13_linear_6423_41144)" stroke-opacity="0.7" stroke-miterlimit="10"/>
<path d="M-148.837 510.788C-97.2491 476.346 -35.5494 464.465 22.7881 467.945C80.9939 471.405 136.876 489.58 188.703 517.815C230.947 540.758 272.119 571.806 311.355 602.299C318.957 608.228 326.58 614.027 334.373 619.584C378.874 651.793 419.917 673.759 467.837 673.023C528.04 672.116 582.536 627.177 630.405 576.987C635.665 571.505 640.944 565.893 646.092 560.262C687.175 515.86 734.56 468.93 791.698 453.306C806.728 449.144 822.219 447.316 838.19 447.693C884.18 449.069 926.071 470.761 968.23 491.56C1011.8 512.835 1055.45 532.656 1102.79 534.9C1178.33 538.672 1249.61 495.831 1308.12 447.49C1318.85 438.691 1329.39 429.462 1339.77 420.343C1386.41 379.301 1432.51 336.446 1488.52 309.457C1557.29 276.238 1647.8 275.307 1695.98 324.457" stroke="url(#paint14_linear_6423_41144)" stroke-opacity="0.7" stroke-miterlimit="10"/>
<path d="M-152.402 503.061C-101.829 468.2 -41.0783 453.647 17.4224 454.218C75.923 454.79 133.364 469.732 186.482 495.626C229.675 516.712 271.515 545.993 309.843 577.151C317.294 583.19 324.614 589.211 332.086 595.12C375.091 629.239 415.187 656.662 464.336 659.441C526.836 663.007 584.436 618.929 633.848 569.236C639.239 563.773 644.65 558.181 649.91 552.699C692.008 508.715 739.544 461.674 796.799 445.268C811.849 440.976 827.397 438.757 843.52 439.023C889.871 439.786 932.025 461.517 974.389 482.746C1017.88 504.543 1061.6 525.707 1109.11 528.642C1185.17 533.425 1256.72 489.691 1315.1 440.398C1325.74 431.319 1336.27 422.089 1346.69 412.71C1393.19 370.846 1439.24 327.45 1495.64 300.52C1564.92 267.51 1657.31 268.457 1703.92 321.773" stroke="url(#paint15_linear_6423_41144)" stroke-opacity="0.7" stroke-miterlimit="10"/>
<path d="M-155.835 495.353C-106.126 459.965 -46.6269 442.959 12.3199 440.532C71.1349 438.085 129.983 449.904 184.391 473.458C228.666 492.705 270.89 520.311 308.575 552.173C315.875 558.323 323.025 564.585 330.194 570.716C371.854 606.634 410.852 639.624 461.229 645.918C526.007 654.088 586.599 610.722 637.685 561.544C643.34 556.121 648.864 550.678 654.255 545.216C697.369 501.649 745.075 454.367 802.315 437.159C817.403 432.606 832.991 430.127 849.132 430.262C895.975 430.433 938.281 452.053 980.699 473.823C1024.25 496.161 1067.9 518.648 1115.73 522.164C1192.46 527.847 1264.28 483.219 1322.38 433.085C1333.04 423.875 1343.46 414.496 1353.92 404.856C1400.38 362.321 1446.29 318.103 1503.19 291.381C1572.98 258.581 1667.36 261.556 1712.3 318.887" stroke="url(#paint16_linear_6423_41144)" stroke-opacity="0.7" stroke-miterlimit="10"/>
<path d="M-159.399 487.626C-110.686 451.69 -52.2874 432.121 6.97371 426.675C66.1031 421.21 126.49 429.926 182.058 451.12C227.434 468.398 270.153 494.478 306.951 526.874C313.968 533.116 320.967 539.488 327.945 545.991C368.261 583.708 406.162 622.266 457.786 631.945C524.729 644.568 588.577 601.953 641.167 553.532C646.953 548.128 652.589 542.836 658.113 537.393C702.11 494.224 750.231 446.871 807.455 428.861C822.563 424.177 838.189 421.437 854.501 421.331C901.685 421.019 944.294 442.418 986.898 464.749C1030.5 487.628 1074.09 511.439 1122.22 515.666C1199.47 522.359 1271.7 476.858 1329.53 425.752C1340.08 416.392 1350.54 406.753 1360.87 397.093C1407.18 353.736 1452.9 308.957 1510.35 282.184C1580.67 249.461 1676.88 254.576 1720.28 315.943" stroke="url(#paint17_linear_6423_41144)" stroke-opacity="0.7" stroke-miterlimit="10"/>
<path d="M-162.831 479.918C-28.2822 377.581 180.769 387.353 305.683 501.895C352.737 545.013 392.457 603.034 454.66 618.551C531.277 637.678 605.531 583.949 662.439 530.039C719.347 476.13 781.337 414.313 860.359 412.739C956.541 410.786 1033.38 499.918 1129.08 509.356C1206.86 517.06 1279.35 470.666 1337.17 418.758C1394.99 366.85 1447.43 305.878 1518.24 273.495C1589.07 240.981 1687.29 247.994 1729.12 313.526" stroke="url(#paint18_linear_6423_41144)" stroke-opacity="0.7" stroke-miterlimit="10"/>
<path d="M-159.591 506.122C-27.1772 400.936 181.631 406.006 309.367 516.97C357.425 558.771 398.412 615.515 460.829 629.597C522.587 643.582 582.003 610.837 631.608 568.902C643.782 558.584 655.224 547.758 666.12 536.984C698.826 504.53 732.881 469.346 771.148 444.783C797.779 427.82 826.61 415.982 858.3 413.898C889.444 411.867 918.889 419.446 947.865 431.086C1006.63 454.354 1063.28 494.502 1127.34 502.033C1195.65 510.06 1259.48 479.305 1313.56 439.901C1320.94 434.602 1328.09 429.134 1334.99 423.497C1379.02 388.198 1420.43 347.975 1468.95 316.941C1484.57 307.003 1500.86 297.965 1518.28 290.426C1589.56 259.445 1686.54 263.876 1728.5 322.229" stroke="url(#paint19_linear_6423_41144)" stroke-opacity="0.7" stroke-miterlimit="10"/>
<path d="M-156.2 532.218C-25.9207 424.182 182.663 424.421 313.05 532.047C362.112 572.532 404.499 628.017 467.129 640.665C528.969 653.196 587.881 619.309 636.397 576.546C648.196 566.04 659.525 555.063 670.064 543.969C701.813 510.707 734.609 474.935 771.825 449.284C797.631 431.531 825.544 418.623 856.618 415.249C887.034 411.776 916.053 417.692 945.129 427.749C1004.07 447.978 1061.96 486.177 1125.98 494.901C1193.98 504.082 1257.3 477.649 1311.47 443.058C1318.76 438.411 1325.96 433.484 1333.01 428.668C1377.38 397.418 1419.52 361.303 1468.75 332.773C1484.54 323.526 1501 315.179 1518.51 307.921C1590.23 278.472 1686 280.19 1728.22 331.385" stroke="url(#paint20_linear_6423_41144)" stroke-opacity="0.7" stroke-miterlimit="10"/>
<path d="M-152.94 558.292C-24.7965 447.405 183.695 442.833 316.734 547.121C366.668 586.27 410.453 640.497 473.297 651.711C535.331 662.938 593.608 627.891 641.035 584.299C652.589 573.623 663.562 562.327 673.876 550.933C704.781 517.012 736.356 480.392 772.259 453.612C797.107 435.051 824.346 421.243 854.56 416.408C884.379 411.514 912.972 415.767 942.018 424.219C1001.03 441.261 1060.15 477.511 1124.26 487.447C1192.08 497.802 1254.88 475.822 1309.16 445.912C1316.51 441.806 1323.72 437.681 1330.82 433.406C1375.67 406.225 1418.41 374.198 1468.23 348.023C1484.3 339.617 1500.96 331.7 1518.53 324.983C1590.69 297.067 1685.23 296.202 1727.59 340.088" stroke="url(#paint21_linear_6423_41144)" stroke-opacity="0.7" stroke-miterlimit="10"/>
<path d="M-149.569 584.515C-23.7107 470.889 184.688 461.505 320.549 562.215C371.468 600.177 416.54 652.996 479.597 662.776C541.712 672.548 599.598 636.51 645.692 591.921C657.022 580.944 667.751 569.479 677.689 557.896C707.749 523.316 737.952 485.959 772.804 458.09C796.828 438.74 823.261 424.012 852.746 417.736C881.817 411.531 910.135 414.011 939.15 420.859C998.347 434.862 1058.7 469.163 1122.64 480.273C1190.15 491.782 1252.42 474.255 1306.96 448.915C1314.34 445.481 1321.61 441.898 1328.74 438.294C1373.92 415.292 1417.55 387.263 1467.96 363.441C1484.19 355.726 1501.02 348.5 1518.68 342.064C1591.29 315.68 1684.62 312.103 1727.24 348.83" stroke="url(#paint22_linear_6423_41144)" stroke-opacity="0.7" stroke-miterlimit="10"/>
<path d="M-146.309 610.59C-22.5865 494.115 185.588 479.899 324.232 577.291C376.155 613.936 422.475 665.608 485.746 673.954C547.942 682.273 605.325 645.093 650.33 599.675C661.415 588.529 671.788 576.744 681.482 564.992C710.716 529.623 739.66 491.679 773.218 462.551C796.397 442.541 821.931 426.614 850.688 418.897C879.031 411.251 907.055 412.087 936.039 417.332C995.569 428.186 1056.85 460.759 1120.9 472.951C1188.08 485.744 1250 472.43 1304.63 451.902C1312.05 449.139 1319.35 446.227 1326.54 443.165C1372.05 424.212 1416.42 400.29 1467.55 378.842C1483.93 371.949 1500.95 365.284 1518.83 359.147C1591.89 334.296 1683.99 328.136 1726.88 357.574" stroke="url(#paint23_linear_6423_41144)" stroke-opacity="0.7" stroke-miterlimit="10"/>
<path d="M-143.069 636.795C-21.4812 517.47 186.47 498.423 327.897 592.497C380.691 627.806 428.411 678.221 492.026 685.151C554.417 692.166 611.164 653.826 655.08 607.58C665.809 596.114 675.938 584.159 685.407 572.107C713.796 536.079 741.5 497.417 773.896 467.05C796.117 446.232 820.977 429.405 849.006 420.246C876.733 411.309 904.369 410.222 933.303 413.993C993.035 421.679 1055.53 452.433 1119.55 465.688C1186.57 479.655 1247.82 470.773 1302.72 454.816C1310.17 452.725 1317.52 450.354 1324.73 448.094C1370.58 433.19 1415.68 413.376 1467.39 394.412C1484.05 388.36 1501.27 382.126 1519.08 376.511C1592.58 353.191 1683.46 344.319 1726.46 366.709" stroke="url(#paint24_linear_6423_41144)" stroke-opacity="0.7" stroke-miterlimit="10"/>
<path d="M-139.678 662.89C-20.2252 540.715 187.482 516.967 331.731 607.462C385.53 641.455 434.517 690.591 498.346 696.087C560.818 701.648 617.042 662.297 659.757 615.073C670.241 603.438 680.145 591.183 689.239 578.941C716.652 542.235 743.115 502.856 774.329 471.38C795.725 449.773 819.799 431.896 846.948 421.407C873.946 411.028 901.288 408.298 930.323 410.485C990.277 414.871 1053.83 443.918 1117.95 458.385C1184.65 473.506 1245.51 469.097 1300.52 457.821C1308.02 456.272 1315.39 454.703 1322.65 452.984C1368.85 442.129 1414.69 426.423 1467.12 409.832C1483.94 404.471 1501.33 398.928 1519.23 393.594C1593.18 371.806 1682.85 360.221 1726.11 375.452" stroke="url(#paint25_linear_6423_41144)" stroke-opacity="0.7" stroke-miterlimit="10"/>
<path d="M-136.418 688.965C-19.1005 563.94 188.383 535.36 335.415 622.538C390.086 655.194 440.472 703.073 504.514 707.135C567.2 711.261 622.788 670.75 664.395 622.827C674.655 610.892 684.183 598.448 693.052 585.906C719.639 548.411 744.843 508.445 774.895 475.73C795.446 453.464 818.601 434.517 845.154 422.606C871.423 410.787 898.491 406.283 927.475 406.996C987.631 408.214 1052.42 435.311 1116.49 450.972C1183.02 467.267 1243.24 467.161 1298.34 460.697C1305.88 459.819 1313.29 458.921 1320.6 457.743C1367.13 450.937 1413.71 439.339 1466.73 425.103C1483.71 420.563 1501.28 415.581 1519.38 410.677C1593.78 390.422 1682.22 376.255 1725.62 384.177" stroke="url(#paint26_linear_6423_41144)" stroke-opacity="0.7" stroke-miterlimit="10"/>
<path d="M-133.047 715.19C-17.8638 587.315 189.395 553.904 339.098 637.614C394.773 668.953 446.558 715.574 510.814 718.201C573.581 720.874 628.778 679.371 669.184 630.47C679.2 618.365 688.351 605.732 696.996 592.891C722.738 554.737 746.703 514.053 775.44 480.209C795.034 457.134 817.535 437.157 843.34 423.936C869.013 410.695 895.654 404.529 924.608 403.638C984.965 401.687 1050.84 426.946 1114.99 443.82C1181.22 461.268 1240.91 465.615 1296.28 463.721C1303.85 463.515 1311.31 463.159 1318.64 462.783C1365.64 460.045 1412.82 452.536 1466.55 440.803C1483.82 436.974 1501.43 432.663 1519.63 428.04C1594.36 409.167 1681.69 392.437 1725.35 393.2" stroke="url(#paint27_linear_6423_41144)" stroke-opacity="0.7" stroke-miterlimit="10"/>
<path d="M-129.787 741.263C-16.8713 610.519 190.276 572.426 342.781 652.688C399.46 682.71 452.513 728.054 516.982 729.247C579.943 730.615 634.505 687.952 673.841 638.092C683.632 625.688 692.54 612.885 700.808 599.854C725.706 561.041 748.298 519.62 776.006 484.557C794.755 460.823 816.468 439.796 841.413 425.114C866.339 410.563 892.592 402.473 921.647 399.997C982.207 394.878 1049.29 418.318 1113.27 436.365C1179.19 454.967 1238.49 463.787 1293.97 466.575C1301.57 467.04 1309.07 467.356 1316.45 467.521C1363.8 468.833 1411.84 465.45 1466.17 456.071C1483.58 453.064 1501.53 449.203 1519.8 444.991C1594.97 427.65 1681.08 408.338 1724.86 401.923" stroke="url(#paint28_linear_6423_41144)" stroke-opacity="0.7" stroke-miterlimit="10"/>
<path d="M-126.547 767.469C-15.6345 633.894 191.289 590.97 346.465 667.764C404.016 696.45 458.449 740.666 523.131 740.424C586.174 740.339 640.232 696.535 678.327 645.957C687.743 633.363 696.426 620.261 704.469 606.93C728.542 567.328 749.875 525.319 776.4 489.148C794.324 464.625 815.119 442.528 839.448 426.555C863.645 410.562 889.605 400.829 918.629 396.75C979.41 388.332 1047.58 409.933 1111.65 429.193C1177.39 448.969 1236.05 462.092 1291.75 469.711C1299.28 470.698 1306.94 471.704 1314.36 472.541C1362.04 477.902 1410.83 478.628 1465.74 471.603C1483.33 469.287 1501.44 466.117 1519.78 462.315C1595.4 446.507 1680.29 424.482 1724.33 410.908" stroke="url(#paint29_linear_6423_41144)" stroke-opacity="0.7" stroke-miterlimit="10"/>
<path d="M-123.156 793.562C-14.5097 657.118 192.321 609.382 350.28 682.859C408.835 710.228 464.536 753.166 529.431 751.491C592.687 749.971 646.091 705.136 683.117 653.6C692.307 640.706 700.615 627.414 708.414 613.914C731.51 573.633 751.735 530.927 776.966 493.497C794.064 468.185 814.073 445.038 837.542 427.604C861.142 410.19 886.695 398.664 915.669 393.111C976.671 381.393 1046.03 401.307 1110.06 421.76C1175.5 442.689 1233.76 460.285 1289.59 472.455C1297.15 474.114 1304.85 475.792 1312.45 477.189C1360.48 486.599 1410 491.432 1465.64 486.781C1483.5 485.306 1501.67 482.678 1520.24 479.175C1596.3 464.9 1679.96 440.293 1724.28 419.429" stroke="url(#paint30_linear_6423_41144)" stroke-opacity="0.7" stroke-miterlimit="10"/>
<path d="M-119.897 819.636C-13.4049 680.472 193.202 627.905 353.963 697.933C413.522 723.985 470.49 765.646 535.731 762.556C599.049 759.712 651.949 713.736 687.886 661.372C696.833 648.308 704.915 634.717 712.338 621.027C734.59 580.088 753.574 536.664 777.643 497.994C793.897 472.023 812.987 447.807 835.859 428.952C858.731 410.096 883.99 396.927 912.933 389.77C974.137 374.884 1044.58 392.959 1108.72 414.495C1174 436.467 1231.6 458.496 1287.65 475.498C1295.25 477.828 1302.87 480.028 1310.62 482.247C1358.99 495.706 1409.24 504.647 1465.46 502.48C1483.49 501.696 1501.84 499.628 1520.48 496.537C1596.99 483.794 1679.44 456.474 1723.88 428.432" stroke="url(#paint31_linear_6423_41144)" stroke-opacity="0.7" stroke-miterlimit="10"/>
<path d="M-116.525 845.861C-12.2802 703.697 194.083 646.429 357.647 713.009C418.078 737.725 476.445 778.128 541.899 773.603C605.431 769.326 657.808 722.339 692.544 668.996C701.265 655.632 708.972 641.851 716.171 627.862C737.597 586.133 755.322 542.122 778.077 502.324C793.373 475.545 811.677 450.279 833.933 430.132C856.077 409.835 881.06 394.892 909.953 386.262C971.379 368.077 1043.05 384.203 1107.11 407.192C1172.11 430.189 1229.29 456.821 1285.33 478.484C1292.96 481.486 1300.61 484.357 1308.42 487.117C1357.13 504.625 1408.12 517.674 1465.05 517.88C1483.23 517.918 1501.9 516.431 1520.62 513.75C1597.57 502.54 1678.79 472.637 1723.48 437.436" stroke="url(#paint32_linear_6423_41144)" stroke-opacity="0.7" stroke-miterlimit="10"/>
<path d="M-113.265 871.935C-11.0238 726.942 195.115 664.842 361.331 728.084C422.766 751.484 482.4 790.609 548.068 784.65C611.681 778.919 663.554 730.79 697.069 676.6C705.415 663.047 712.897 648.966 719.852 634.807C740.433 592.42 756.918 547.691 778.51 506.654C792.962 479.216 810.499 452.769 831.875 431.292C853.29 409.554 877.999 392.838 906.842 382.734C968.489 361.25 1041.36 375.688 1105.37 399.87C1170.19 424.04 1226.72 455.105 1283.02 481.339C1290.7 484.882 1298.39 488.425 1306.23 491.857C1355.26 513.544 1407.01 530.57 1464.67 533.15C1483.14 533.899 1501.85 533.083 1520.66 530.683C1598.06 521.005 1678.06 488.39 1722.88 446.01" stroke="url(#paint33_linear_6423_41144)" stroke-opacity="0.7" stroke-miterlimit="10"/>
<path d="M-110.025 898.141C-9.91922 750.297 195.996 683.366 365.126 743.31C427.546 765.523 488.58 803.391 554.46 795.997C618.268 788.962 669.505 739.673 701.931 684.654C710.053 670.801 717.29 656.551 723.888 642.072C743.625 599.026 758.87 553.58 779.148 511.414C792.775 483.187 809.506 455.821 830.154 432.903C850.821 409.854 875.123 391.345 904.067 379.656C965.935 354.873 1039.87 367.603 1103.99 392.868C1168.5 418.192 1224.65 453.599 1281.04 484.645C1288.77 488.859 1296.49 493.074 1304.36 497.177C1353.86 522.933 1406.34 544.067 1464.45 549.112C1483.07 550.682 1501.96 550.427 1520.85 548.438C1598.69 540.292 1677.46 505.094 1722.56 455.426" stroke="url(#paint34_linear_6423_41144)" stroke-opacity="0.7" stroke-miterlimit="10"/>
<path d="M-106.634 924.235C-8.79451 773.522 197.009 701.91 368.81 758.386C432.102 779.263 494.535 815.872 560.629 807.044C624.518 798.555 675.232 748.255 706.589 692.277C714.466 678.255 721.328 663.815 727.701 649.036C746.461 605.312 760.598 559.168 779.714 515.763C792.496 486.877 808.327 458.311 828.228 434.082C848.299 409.612 872.194 389.31 901.219 376.167C963.177 348.065 1038.43 359.127 1102.38 385.565C1166.72 412.062 1222.21 451.903 1278.86 487.52C1286.62 492.406 1294.4 497.161 1302.31 501.936C1352.15 531.741 1405.37 556.983 1464.2 564.401C1482.96 566.793 1502.06 566.969 1521.15 565.41C1599.44 558.796 1677 520.886 1722.35 464.058" stroke="url(#paint35_linear_6423_41144)" stroke-opacity="0.7" stroke-miterlimit="10"/>
<path d="M-103.374 950.309C-7.6893 796.876 197.89 720.432 372.513 773.33C436.808 792.89 500.509 828.222 566.817 817.96C630.919 808.036 680.998 756.576 711.246 699.9C741.495 643.224 756.196 579.704 780.148 520.092C804.099 460.48 840.46 401.648 898.24 372.658C960.4 341.387 1036.76 350.479 1100.77 378.261C1164.81 405.912 1219.77 450.206 1276.67 490.524C1333.43 530.822 1394.88 568.617 1463.79 579.8C1560.95 595.719 1665.3 552.464 1721.71 472.891" stroke="url(#paint36_linear_6423_41144)" stroke-opacity="0.7" stroke-miterlimit="10"/>
<defs>
<linearGradient id="paint0_linear_6423_41144" x1="10.2229" y1="642.427" x2="1116.67" y2="30.2705" gradientUnits="userSpaceOnUse">
<stop stop-color="#29BCFA"/>
<stop offset="0.43" stop-color="#6464E4"/>
<stop offset="1" stop-color="#B45AFA"/>
</linearGradient>
<linearGradient id="paint1_linear_6423_41144" x1="8.97214" y1="624.855" x2="1099.56" y2="-1.95937" gradientUnits="userSpaceOnUse">
<stop stop-color="#29BCFA"/>
<stop offset="0.43" stop-color="#6464E4"/>
<stop offset="1" stop-color="#B45AFA"/>
</linearGradient>
<linearGradient id="paint2_linear_6423_41144" x1="7.85045" y1="607.509" x2="1081.42" y2="-33.7421" gradientUnits="userSpaceOnUse">
<stop stop-color="#29BCFA"/>
<stop offset="0.43" stop-color="#6464E4"/>
<stop offset="1" stop-color="#B45AFA"/>
</linearGradient>
<linearGradient id="paint3_linear_6423_41144" x1="6.5968" y1="590.145" x2="1061.76" y2="-65.0472" gradientUnits="userSpaceOnUse">
<stop stop-color="#29BCFA"/>
<stop offset="0.43" stop-color="#6464E4"/>
<stop offset="1" stop-color="#B45AFA"/>
</linearGradient>
<linearGradient id="paint4_linear_6423_41144" x1="5.42275" y1="573.024" x2="1040.89" y2="-95.3344" gradientUnits="userSpaceOnUse">
<stop stop-color="#29BCFA"/>
<stop offset="0.43" stop-color="#6464E4"/>
<stop offset="1" stop-color="#B45AFA"/>
</linearGradient>
<linearGradient id="paint5_linear_6423_41144" x1="4.25503" y1="556.052" x2="1019.28" y2="-124.855" gradientUnits="userSpaceOnUse">
<stop stop-color="#29BCFA"/>
<stop offset="0.43" stop-color="#6464E4"/>
<stop offset="1" stop-color="#B45AFA"/>
</linearGradient>
<linearGradient id="paint6_linear_6423_41144" x1="2.99984" y1="538.51" x2="997.774" y2="-153.584" gradientUnits="userSpaceOnUse">
<stop stop-color="#29BCFA"/>
<stop offset="0.43" stop-color="#6464E4"/>
<stop offset="1" stop-color="#B45AFA"/>
</linearGradient>
<linearGradient id="paint7_linear_6423_41144" x1="1.86541" y1="521.372" x2="975.615" y2="-181.422" gradientUnits="userSpaceOnUse">
<stop stop-color="#29BCFA"/>
<stop offset="0.43" stop-color="#6464E4"/>
<stop offset="1" stop-color="#B45AFA"/>
</linearGradient>
<linearGradient id="paint8_linear_6423_41144" x1="0.499693" y1="504.509" x2="953.617" y2="-207.539" gradientUnits="userSpaceOnUse">
<stop stop-color="#29BCFA"/>
<stop offset="0.43" stop-color="#6464E4"/>
<stop offset="1" stop-color="#B45AFA"/>
</linearGradient>
<linearGradient id="paint9_linear_6423_41144" x1="-0.673743" y1="487.512" x2="932.875" y2="-233.02" gradientUnits="userSpaceOnUse">
<stop stop-color="#29BCFA"/>
<stop offset="0.43" stop-color="#6464E4"/>
<stop offset="1" stop-color="#B45AFA"/>
</linearGradient>
<linearGradient id="paint10_linear_6423_41144" x1="-2.09392" y1="471.204" x2="911.882" y2="-256.924" gradientUnits="userSpaceOnUse">
<stop stop-color="#29BCFA"/>
<stop offset="0.43" stop-color="#6464E4"/>
<stop offset="1" stop-color="#B45AFA"/>
</linearGradient>
<linearGradient id="paint11_linear_6423_41144" x1="-3.42779" y1="455.287" x2="892.72" y2="-279.611" gradientUnits="userSpaceOnUse">
<stop stop-color="#29BCFA"/>
<stop offset="0.43" stop-color="#6464E4"/>
<stop offset="1" stop-color="#B45AFA"/>
</linearGradient>
<linearGradient id="paint12_linear_6423_41144" x1="-4.88173" y1="440.109" x2="874.988" y2="-300.785" gradientUnits="userSpaceOnUse">
<stop stop-color="#29BCFA"/>
<stop offset="0.43" stop-color="#6464E4"/>
<stop offset="1" stop-color="#B45AFA"/>
</linearGradient>
<linearGradient id="paint13_linear_6423_41144" x1="-6.64164" y1="426.086" x2="859.36" y2="-320.227" gradientUnits="userSpaceOnUse">
<stop stop-color="#29BCFA"/>
<stop offset="0.43" stop-color="#6464E4"/>
<stop offset="1" stop-color="#B45AFA"/>
</linearGradient>
<linearGradient id="paint14_linear_6423_41144" x1="-8.33985" y1="412.68" x2="845.744" y2="-338.749" gradientUnits="userSpaceOnUse">
<stop stop-color="#29BCFA"/>
<stop offset="0.43" stop-color="#6464E4"/>
<stop offset="1" stop-color="#B45AFA"/>
</linearGradient>
<linearGradient id="paint15_linear_6423_41144" x1="-10.334" y1="400.104" x2="833.559" y2="-355.931" gradientUnits="userSpaceOnUse">
<stop stop-color="#29BCFA"/>
<stop offset="0.43" stop-color="#6464E4"/>
<stop offset="1" stop-color="#B45AFA"/>
</linearGradient>
<linearGradient id="paint16_linear_6423_41144" x1="-12.2411" y1="387.973" x2="823.177" y2="-372.584" gradientUnits="userSpaceOnUse">
<stop stop-color="#29BCFA"/>
<stop offset="0.43" stop-color="#6464E4"/>
<stop offset="1" stop-color="#B45AFA"/>
</linearGradient>
<linearGradient id="paint17_linear_6423_41144" x1="-14.31" y1="375.902" x2="813.142" y2="-388.883" gradientUnits="userSpaceOnUse">
<stop stop-color="#29BCFA"/>
<stop offset="0.43" stop-color="#6464E4"/>
<stop offset="1" stop-color="#B45AFA"/>
</linearGradient>
<linearGradient id="paint18_linear_6423_41144" x1="-16.3018" y1="364.595" x2="804.21" y2="-404.605" gradientUnits="userSpaceOnUse">
<stop stop-color="#29BCFA"/>
<stop offset="0.43" stop-color="#6464E4"/>
<stop offset="1" stop-color="#B45AFA"/>
</linearGradient>
<linearGradient id="paint19_linear_6423_41144" x1="-11.5007" y1="377.293" x2="799.157" y2="-388.632" gradientUnits="userSpaceOnUse">
<stop stop-color="#29BCFA"/>
<stop offset="0.43" stop-color="#6464E4"/>
<stop offset="1" stop-color="#B45AFA"/>
</linearGradient>
<linearGradient id="paint20_linear_6423_41144" x1="-6.56474" y1="390.119" x2="793.96" y2="-372.547" gradientUnits="userSpaceOnUse">
<stop stop-color="#29BCFA"/>
<stop offset="0.43" stop-color="#6464E4"/>
<stop offset="1" stop-color="#B45AFA"/>
</linearGradient>
<linearGradient id="paint21_linear_6423_41144" x1="-1.75196" y1="402.738" x2="789.889" y2="-356.642" gradientUnits="userSpaceOnUse">
<stop stop-color="#29BCFA"/>
<stop offset="0.43" stop-color="#6464E4"/>
<stop offset="1" stop-color="#B45AFA"/>
</linearGradient>
<linearGradient id="paint22_linear_6423_41144" x1="1.75771" y1="425.086" x2="810.718" y2="-333.598" gradientUnits="userSpaceOnUse">
<stop stop-color="#29BCFA"/>
<stop offset="0.43" stop-color="#6464E4"/>
<stop offset="1" stop-color="#B45AFA"/>
</linearGradient>
<linearGradient id="paint23_linear_6423_41144" x1="5.15403" y1="447.354" x2="832.356" y2="-310.284" gradientUnits="userSpaceOnUse">
<stop stop-color="#29BCFA"/>
<stop offset="0.43" stop-color="#6464E4"/>
<stop offset="1" stop-color="#B45AFA"/>
</linearGradient>
<linearGradient id="paint24_linear_6423_41144" x1="8.56836" y1="469.504" x2="854.81" y2="-286.617" gradientUnits="userSpaceOnUse">
<stop stop-color="#29BCFA"/>
<stop offset="0.43" stop-color="#6464E4"/>
<stop offset="1" stop-color="#B45AFA"/>
</linearGradient>
<linearGradient id="paint25_linear_6423_41144" x1="12.1946" y1="491.069" x2="879.229" y2="-262.956" gradientUnits="userSpaceOnUse">
<stop stop-color="#29BCFA"/>
<stop offset="0.43" stop-color="#6464E4"/>
<stop offset="1" stop-color="#B45AFA"/>
</linearGradient>
<linearGradient id="paint26_linear_6423_41144" x1="15.7773" y1="512.024" x2="905.718" y2="-239.221" gradientUnits="userSpaceOnUse">
<stop stop-color="#29BCFA"/>
<stop offset="0.43" stop-color="#6464E4"/>
<stop offset="1" stop-color="#B45AFA"/>
</linearGradient>
<linearGradient id="paint27_linear_6423_41144" x1="19.5579" y1="532.614" x2="933.979" y2="-215.06" gradientUnits="userSpaceOnUse">
<stop stop-color="#29BCFA"/>
<stop offset="0.43" stop-color="#6464E4"/>
<stop offset="1" stop-color="#B45AFA"/>
</linearGradient>
<linearGradient id="paint28_linear_6423_41144" x1="23.2264" y1="552.987" x2="961.579" y2="-190.229" gradientUnits="userSpaceOnUse">
<stop stop-color="#29BCFA"/>
<stop offset="0.43" stop-color="#6464E4"/>
<stop offset="1" stop-color="#B45AFA"/>
</linearGradient>
<linearGradient id="paint29_linear_6423_41144" x1="26.869" y1="573.538" x2="988.131" y2="-164.482" gradientUnits="userSpaceOnUse">
<stop stop-color="#29BCFA"/>
<stop offset="0.43" stop-color="#6464E4"/>
<stop offset="1" stop-color="#B45AFA"/>
</linearGradient>
<linearGradient id="paint30_linear_6423_41144" x1="30.7014" y1="593.845" x2="1014.58" y2="-138.343" gradientUnits="userSpaceOnUse">
<stop stop-color="#29BCFA"/>
<stop offset="0.43" stop-color="#6464E4"/>
<stop offset="1" stop-color="#B45AFA"/>
</linearGradient>
<linearGradient id="paint31_linear_6423_41144" x1="34.3656" y1="614.31" x2="1039.31" y2="-111.451" gradientUnits="userSpaceOnUse">
<stop stop-color="#29BCFA"/>
<stop offset="0.43" stop-color="#6464E4"/>
<stop offset="1" stop-color="#B45AFA"/>
</linearGradient>
<linearGradient id="paint32_linear_6423_41144" x1="38.1402" y1="634.88" x2="1063.49" y2="-83.7913" gradientUnits="userSpaceOnUse">
<stop stop-color="#29BCFA"/>
<stop offset="0.43" stop-color="#6464E4"/>
<stop offset="1" stop-color="#B45AFA"/>
</linearGradient>
<linearGradient id="paint33_linear_6423_41144" x1="41.8067" y1="655.209" x2="1087.02" y2="-55.7109" gradientUnits="userSpaceOnUse">
<stop stop-color="#29BCFA"/>
<stop offset="0.43" stop-color="#6464E4"/>
<stop offset="1" stop-color="#B45AFA"/>
</linearGradient>
<linearGradient id="paint34_linear_6423_41144" x1="45.4471" y1="675.896" x2="1108.97" y2="-27.1992" gradientUnits="userSpaceOnUse">
<stop stop-color="#29BCFA"/>
<stop offset="0.43" stop-color="#6464E4"/>
<stop offset="1" stop-color="#B45AFA"/>
</linearGradient>
<linearGradient id="paint35_linear_6423_41144" x1="49.2636" y1="696.248" x2="1131.04" y2="1.6596" gradientUnits="userSpaceOnUse">
<stop stop-color="#29BCFA"/>
<stop offset="0.43" stop-color="#6464E4"/>
<stop offset="1" stop-color="#B45AFA"/>
</linearGradient>
<linearGradient id="paint36_linear_6423_41144" x1="53.5765" y1="712.229" x2="1166.41" y2="31.1457" gradientUnits="userSpaceOnUse">
<stop stop-color="#29BCFA"/>
<stop offset="0.43" stop-color="#6464E4"/>
<stop offset="1" stop-color="#B45AFA"/>
</linearGradient>
</defs>
</svg>
