<svg width="24" height="25" viewBox="0 0 24 25" fill="none" xmlns="http://www.w3.org/2000/svg">
<g clip-path="url(#clip0_1_19757)">
<path fill-rule="evenodd" clip-rule="evenodd" d="M24 12.9922C24 19.6196 18.6274 24.9922 12 24.9922C5.37258 24.9922 0 19.6196 0 12.9922C0 6.36477 5.37258 0.992188 12 0.992188C18.6274 0.992188 24 6.36477 24 12.9922ZM12.43 9.85112C11.2628 10.3366 8.93014 11.3414 5.43189 12.8655C4.86383 13.0914 4.56626 13.3124 4.53917 13.5285C4.49339 13.8937 4.95071 14.0375 5.57348 14.2333C5.65819 14.2599 5.74596 14.2875 5.83594 14.3168C6.44864 14.516 7.27283 14.749 7.70129 14.7582C8.08994 14.7666 8.52373 14.6064 9.00264 14.2775C12.2712 12.0712 13.9584 10.956 14.0643 10.932C14.139 10.915 14.2426 10.8937 14.3128 10.956C14.3829 11.0184 14.376 11.1365 14.3686 11.1682C14.3233 11.3613 12.5281 13.0303 11.5991 13.894C11.3095 14.1632 11.1041 14.3542 11.0621 14.3978C10.968 14.4955 10.8721 14.588 10.78 14.6768C10.2108 15.2255 9.78391 15.637 10.8036 16.309C11.2936 16.6319 11.6857 16.8989 12.0769 17.1653C12.5042 17.4563 12.9303 17.7464 13.4816 18.1079C13.6221 18.1999 13.7562 18.2956 13.8869 18.3887C14.3841 18.7432 14.8307 19.0616 15.3826 19.0108C15.7032 18.9813 16.0345 18.6798 16.2027 17.7805C16.6002 15.6553 17.3816 11.0506 17.5622 9.15316C17.578 8.98692 17.5581 8.77416 17.5422 8.68076C17.5262 8.58737 17.4928 8.4543 17.3714 8.35579C17.2276 8.23912 17.0056 8.21452 16.9064 8.21627C16.455 8.22422 15.7626 8.465 12.43 9.85112Z" fill="white"/>
</g>
<defs>
<clipPath id="clip0_1_19757">
<rect width="24" height="24" fill="white" transform="translate(0 0.992188)"/>
</clipPath>
</defs>
</svg>
