<svg width="24" height="25" viewBox="0 0 24 25" fill="none" xmlns="http://www.w3.org/2000/svg">
<path d="M24 5.55119C23.117 5.94319 22.168 6.20719 21.172 6.32619C22.189 5.71719 22.97 4.75219 23.337 3.60219C22.386 4.16619 21.332 4.57619 20.21 4.79719C19.313 3.84019 18.032 3.24219 16.616 3.24219C13.437 3.24219 11.101 6.20819 11.819 9.28719C7.728 9.08219 4.1 7.12219 1.671 4.14319C0.381 6.35619 1.002 9.25119 3.194 10.7172C2.388 10.6912 1.628 10.4702 0.965 10.1012C0.911 12.3822 2.546 14.5162 4.914 14.9912C4.221 15.1792 3.462 15.2232 2.69 15.0752C3.316 17.0312 5.134 18.4542 7.29 18.4942C5.22 20.1172 2.612 20.8422 0 20.5342C2.179 21.9312 4.768 22.7462 7.548 22.7462C16.69 22.7462 21.855 15.0252 21.543 8.10019C22.505 7.40519 23.34 6.53819 24 5.55119Z" fill="white"/>
</svg>
